<svg width="24" height="24" viewBox="0 0 24 24" fill="none" xmlns="http://www.w3.org/2000/svg">
<g clip-path="url(#clip0_30375_12427)">
<g clip-path="url(#clip1_30375_12427)">
<path d="M0 7.93C0 3.55038 3.55038 0 7.93 0H16.07C20.4496 0 24 3.55038 24 7.93V16.07C24 20.4496 20.4496 24 16.07 24H7.93C3.55038 24 0 20.4496 0 16.07V7.93Z" fill="url(#paint0_linear_30375_12427)"/>
<path d="M18.5622 7.74854C18.5836 7.73603 18.6014 7.71812 18.6138 7.69659C18.6262 7.67507 18.6327 7.65067 18.6327 7.62585C18.6327 7.60103 18.6262 7.57664 18.6138 7.55511C18.6014 7.53358 18.5836 7.51567 18.5622 7.50316L13.1384 4.35201C12.7914 4.15086 12.3974 4.04492 11.9962 4.04492C11.5951 4.04492 11.2011 4.15086 10.8541 4.35201L5.43134 7.50316C5.4099 7.51567 5.39211 7.53358 5.37975 7.55511C5.36739 7.57664 5.36088 7.60103 5.36088 7.62585C5.36088 7.65067 5.36739 7.67507 5.37975 7.69659C5.39211 7.71812 5.4099 7.73603 5.43134 7.74854L11.9254 11.5687C11.9472 11.5816 11.9721 11.5883 11.9975 11.5883C12.0228 11.5883 12.0477 11.5816 12.0696 11.5687L18.5622 7.74854ZM4.82341 8.71476C4.80175 8.70226 4.77718 8.69569 4.75216 8.69573C4.72715 8.69577 4.70259 8.70241 4.68097 8.71499C4.65935 8.72757 4.64144 8.74563 4.62904 8.76735C4.61664 8.78907 4.61019 8.81368 4.61035 8.83869V15.0135C4.61089 15.3111 4.68932 15.6033 4.83784 15.8612C4.98635 16.119 5.19979 16.3335 5.45691 16.4833L11.2152 19.9359C11.2368 19.9484 11.2613 19.9549 11.2862 19.9549C11.3111 19.9549 11.3356 19.9484 11.3572 19.9359C11.3788 19.9235 11.3967 19.9056 11.4092 19.884C11.4217 19.8624 11.4282 19.8379 11.4283 19.813V12.6489C11.4282 12.624 11.4217 12.5995 11.4092 12.578C11.3967 12.5564 11.3788 12.5385 11.3572 12.526L4.82341 8.71476ZM12.5646 12.6738V19.8113C12.5646 19.8362 12.5712 19.8606 12.5837 19.8822C12.5961 19.9038 12.6141 19.9217 12.6357 19.9342C12.6572 19.9466 12.6817 19.9532 12.7067 19.9531C12.7316 19.9531 12.7561 19.9466 12.7776 19.9341L18.5356 16.4815C18.7925 16.3319 19.0058 16.1177 19.1544 15.8602C19.303 15.6027 19.3816 15.3108 19.3825 15.0135V8.83869C19.3824 8.8138 19.3758 8.78937 19.3633 8.76785C19.3508 8.74632 19.3328 8.72846 19.3112 8.71606C19.2897 8.70365 19.2652 8.69713 19.2403 8.69715C19.2154 8.69717 19.191 8.70374 19.1694 8.71618L12.6356 12.5513C12.6141 12.5637 12.5962 12.5815 12.5837 12.603C12.5713 12.6245 12.5647 12.6489 12.5646 12.6738Z" fill="white"/>
</g>
</g>
<defs>
<linearGradient id="paint0_linear_30375_12427" x1="4.16104" y1="21.8455" x2="22.641" y2="1.46861" gradientUnits="userSpaceOnUse">
<stop offset="0.229502" stop-color="#3D74FE"/>
<stop offset="1" stop-color="#91CFFF"/>
</linearGradient>
<clipPath id="clip0_30375_12427">
<rect width="24" height="24" fill="white"/>
</clipPath>
<clipPath id="clip1_30375_12427">
<rect width="24" height="24" fill="white"/>
</clipPath>
</defs>
</svg>
